<svg width="15" height="15" viewBox="0 0 15 15" fill="none" xmlns="http://www.w3.org/2000/svg">
<path d="M11.875 10.625H3.125C2.43562 10.625 1.875 11.1856 1.875 11.875C1.875 12.5644 2.43562 13.125 3.125 13.125H11.875C12.5644 13.125 13.125 12.5644 13.125 11.875C13.125 11.1856 12.5644 10.625 11.875 10.625ZM11.875 6.25H3.125C2.43562 6.25 1.875 6.81062 1.875 7.5C1.875 8.18938 2.43562 8.75 3.125 8.75H11.875C12.5644 8.75 13.125 8.18938 13.125 7.5C13.125 6.81062 12.5644 6.25 11.875 6.25ZM11.875 1.875H3.125C2.43562 1.875 1.875 2.43562 1.875 3.125C1.875 3.81438 2.43562 4.375 3.125 4.375H11.875C12.5644 4.375 13.125 3.81438 13.125 3.125C13.125 2.43562 12.5644 1.875 11.875 1.875Z" fill="#2B2D2F"/>
</svg>
