<svg width="15" height="15" viewBox="0 0 15 15" fill="none" xmlns="http://www.w3.org/2000/svg">
<path d="M10.8837 4.11626C10.6493 3.88192 10.3314 3.75028 9.99998 3.75028C9.66852 3.75028 9.35064 3.88192 9.11623 4.11626L7.49998 5.73251L5.88373 4.11626C5.76842 3.99687 5.63049 3.90164 5.47798 3.83613C5.32548 3.77062 5.16146 3.73614 4.99548 3.7347C4.82951 3.73325 4.66491 3.76488 4.51129 3.82773C4.35767 3.89058 4.2181 3.9834 4.10074 4.10077C3.98337 4.21813 3.89055 4.3577 3.8277 4.51132C3.76485 4.66494 3.73322 4.82954 3.73467 4.99551C3.73611 5.16149 3.77059 5.32551 3.8361 5.47802C3.90161 5.63052 3.99684 5.76845 4.11623 5.88376L5.73185 7.50001L4.11623 9.11626C3.99684 9.23157 3.90161 9.3695 3.8361 9.522C3.77059 9.67451 3.73611 9.83853 3.73467 10.0045C3.73322 10.1705 3.76485 10.3351 3.8277 10.4887C3.89055 10.6423 3.98337 10.7819 4.10074 10.8993C4.2181 11.0166 4.35767 11.1094 4.51129 11.1723C4.66491 11.2351 4.82951 11.2668 4.99548 11.2653C5.16146 11.2639 5.32548 11.2294 5.47798 11.1639C5.63049 11.0984 5.76842 11.0031 5.88373 10.8838L7.49998 9.26751L9.11623 10.8838C9.35998 11.1281 9.67998 11.25 9.99998 11.25C10.32 11.25 10.64 11.1281 10.8837 10.8838C11.1181 10.6493 11.2497 10.3315 11.2497 10C11.2497 9.66855 11.1181 9.35067 10.8837 9.11626L9.2681 7.50001L10.8837 5.88376C11.1181 5.64935 11.2497 5.33147 11.2497 5.00001C11.2497 4.66855 11.1181 4.35067 10.8837 4.11626Z" fill="#2B2D2F"/>
</svg>
